<svg width="22" height="19" viewBox="0 0 22 19" fill="none" xmlns="http://www.w3.org/2000/svg">
<path d="M10.7083 4.82454L3.66696 11.1287V17.9327C3.66696 18.1089 3.73134 18.2778 3.84593 18.4024C3.96053 18.527 4.11596 18.597 4.27802 18.597L8.55776 18.5849C8.71929 18.584 8.87394 18.5137 8.98787 18.3892C9.10181 18.2647 9.16577 18.0963 9.16577 17.9207V13.9472C9.16577 13.771 9.23015 13.6021 9.34474 13.4775C9.45934 13.3529 9.61477 13.2829 9.77683 13.2829H12.2211C12.3832 13.2829 12.5386 13.3529 12.6532 13.4775C12.7678 13.6021 12.8322 13.771 12.8322 13.9472V17.9178C12.8319 18.0052 12.8475 18.0918 12.8781 18.1726C12.9087 18.2534 12.9537 18.3269 13.0105 18.3888C13.0672 18.4507 13.1347 18.4998 13.2089 18.5333C13.2832 18.5668 13.3628 18.5841 13.4432 18.5841L17.7214 18.597C17.8835 18.597 18.0389 18.527 18.1535 18.4024C18.2681 18.2778 18.3325 18.1089 18.3325 17.9327V11.1241L11.2927 4.82454C11.2099 4.75202 11.1068 4.71248 11.0005 4.71248C10.8942 4.71248 10.7911 4.75202 10.7083 4.82454ZM21.8308 9.10937L18.638 6.24853V0.498188C18.638 0.366061 18.5897 0.239344 18.5038 0.145916C18.4178 0.0524876 18.3013 0 18.1797 0H16.041C15.9195 0 15.8029 0.0524876 15.7169 0.145916C15.631 0.239344 15.5827 0.366061 15.5827 0.498188V3.51264L12.1634 0.454597C11.8353 0.161072 11.4235 0.00058676 10.9986 0.00058676C10.5736 0.00058676 10.1619 0.161072 9.83374 0.454597L0.166323 9.10937C0.119916 9.15107 0.0815212 9.2023 0.0533329 9.26013C0.0251445 9.31796 0.00771497 9.38126 0.00204025 9.44642C-0.00363448 9.51157 0.00255679 9.57731 0.0202603 9.63986C0.0379638 9.70242 0.0668326 9.76056 0.105217 9.81099L1.0791 11.098C1.11738 11.1486 1.16446 11.1905 1.21766 11.2213C1.27085 11.2521 1.32911 11.2711 1.3891 11.2774C1.44909 11.2837 1.50962 11.2771 1.56725 11.2579C1.62487 11.2387 1.67845 11.2074 1.72492 11.1656L10.7083 3.1224C10.7911 3.04988 10.8942 3.01033 11.0005 3.01033C11.1068 3.01033 11.2099 3.04988 11.2927 3.1224L20.2764 11.1656C20.3228 11.2074 20.3763 11.2388 20.4339 11.258C20.4914 11.2772 20.5519 11.284 20.6118 11.2778C20.6718 11.2716 20.73 11.2527 20.7832 11.222C20.8364 11.1914 20.8835 11.1497 20.9219 11.0992L21.8958 9.81223C21.9341 9.76152 21.9629 9.70307 21.9803 9.64024C21.9978 9.57741 22.0037 9.51145 21.9977 9.44613C21.9917 9.38082 21.9738 9.31744 21.9452 9.25965C21.9165 9.20186 21.8777 9.15079 21.8308 9.10937Z" fill="white"/>
</svg>
