<svg width="199" height="221" viewBox="0 0 199 221" fill="none" xmlns="http://www.w3.org/2000/svg">
<defs>
<linearGradient id="paint0_linear_235_4" x1="-4.41007" y1="125" x2="181.256" y2="123.833" gradientUnits="userSpaceOnUse">
<stop stop-color="#1487F1"/>
<stop offset="0.9999" stop-color="#69B1F3" stop-opacity="0.71"/>
<stop offset="1" stop-color="#A76AD7"/>
</linearGradient>
</defs>
<path d="M163.864 52.2586H126.051V15.753C126.051 11.575 124.392 7.5682 121.437 4.61395C118.483 1.6597 114.476 1.27785e-05 110.298 0H15.7529C11.575 1.27786e-05 7.56816 1.6597 4.61392 4.61395C1.65968 7.56821 0 11.575 0 15.753V204.897C0 206.966 0.407465 209.015 1.19913 210.926C1.9908 212.837 3.15116 214.574 4.61397 216.036C6.07678 217.499 7.81338 218.66 9.72463 219.451C11.6359 220.243 13.6843 220.65 15.7531 220.65H110.299C114.477 220.65 118.483 218.991 121.438 216.036C124.392 213.082 126.052 209.075 126.052 204.897V174.651H169.924V168.87H126.051V162.153H154.577V156.371H126.051V146.338H163.864C166.797 146.335 169.608 145.168 171.682 143.094C173.755 141.021 174.922 138.209 174.925 135.277V63.3199C174.922 60.3873 173.755 57.5758 171.682 55.5022C169.608 53.4285 166.797 52.262 163.864 52.2586ZM74.0502 210.912H52.0012V205.13H74.0502V210.912ZM118.709 191.496C118.709 192.774 118.201 194 117.297 194.903C116.394 195.807 115.168 196.315 113.89 196.315H12.1607C10.8828 196.315 9.6573 195.807 8.75372 194.903C7.85014 194 7.34251 192.774 7.34251 191.496V29.1539C7.34251 27.8761 7.85014 26.6506 8.75372 25.747C9.6573 24.8434 10.8828 24.3358 12.1607 24.3358H113.89C115.168 24.3358 116.394 24.8434 117.297 25.747C118.201 26.6506 118.709 27.8761 118.709 29.1539V52.2586H57.9773V43.7992H51.7137V156.371H57.9773V146.338H118.709V191.496ZM169.143 135.277C169.142 136.677 168.585 138.018 167.595 139.008C166.606 139.998 165.264 140.555 163.864 140.556H57.9773V58.0403H163.864C165.264 58.042 166.606 58.5988 167.595 59.5885C168.585 60.5783 169.142 61.9202 169.143 63.3198V135.277Z" fill="url(#paint0_linear_235_4)"/>

</svg>
