<svg width="21" height="23" viewBox="0 0 21 23" fill="none" xmlns="http://www.w3.org/2000/svg">
<path d="M19.7421 2.52093H16.1903L11.8114 1.09229C11.5484 1.00625 11.2696 0.979914 10.9952 1.0152C10.7208 1.05048 10.4577 1.14649 10.2251 1.29625L7.58656 2.9913C7.5581 3.00956 7.53351 3.03325 7.5142 3.06101C7.49488 3.08878 7.48123 3.12007 7.47401 3.15311C7.4668 3.18615 7.46616 3.22029 7.47213 3.25358C7.47811 3.28686 7.49058 3.31865 7.50884 3.34712C7.5271 3.37558 7.55079 3.40017 7.57855 3.41948C7.60632 3.4388 7.63761 3.45245 7.67065 3.45967C7.70369 3.46688 7.73783 3.46752 7.77112 3.46155C7.80441 3.45557 7.83619 3.4431 7.86466 3.42484L10.5031 1.73203C10.6716 1.62382 10.8622 1.5546 11.0608 1.52942C11.2595 1.50424 11.4613 1.52373 11.6514 1.58648L16.0708 3.0241C16.0965 3.03253 16.1233 3.03678 16.1503 3.03668H19.4852V7.36348H17.5691C17.5219 7.36353 17.4756 7.37655 17.4352 7.40111C17.3949 7.42567 17.3621 7.46082 17.3404 7.50275C17.0518 7.99094 16.611 8.37098 16.0856 8.58456V7.42682C16.4985 7.25071 16.9392 6.94432 17.2204 6.41015C17.2363 6.38018 17.2461 6.34739 17.2492 6.31363C17.2524 6.27988 17.2489 6.24584 17.2389 6.21345C17.2289 6.18105 17.2126 6.15094 17.191 6.12484C17.1694 6.09873 17.1428 6.07715 17.1128 6.0613C17.0829 6.04546 17.0501 6.03568 17.0163 6.03252C16.9826 6.02935 16.9485 6.03286 16.9161 6.04285C16.8837 6.05285 16.8536 6.06912 16.8275 6.09075C16.8014 6.11237 16.7798 6.13893 16.764 6.1689C16.2743 7.10515 15.0568 7.14694 15.0501 7.14694C13.4193 7.14694 12.9485 6.00852 12.9296 5.96135C12.9109 5.91274 12.8779 5.87094 12.835 5.84143C12.7921 5.81192 12.7413 5.79609 12.6892 5.79602H10.2691C10.1773 5.79836 10.086 5.78231 10.0005 5.74881C9.91505 5.71531 9.83714 5.66504 9.7714 5.60096C9.70566 5.53688 9.65342 5.46029 9.61774 5.3757C9.58207 5.29111 9.56369 5.20023 9.56369 5.10843C9.56369 5.01663 9.58207 4.92575 9.61774 4.84116C9.65342 4.75657 9.70566 4.67998 9.7714 4.6159C9.83714 4.55182 9.91505 4.50154 10.0005 4.46804C10.086 4.43454 10.1773 4.41849 10.2691 4.42084H13.1578C13.1925 4.42229 13.2272 4.4167 13.2597 4.40441C13.2923 4.39211 13.322 4.37337 13.3471 4.3493C13.3722 4.32523 13.3921 4.29634 13.4058 4.26436C13.4194 4.23237 13.4264 4.19796 13.4264 4.16319C13.4264 4.12842 13.4194 4.09401 13.4058 4.06203C13.3921 4.03004 13.3722 4.00115 13.3471 3.97708C13.322 3.95301 13.2923 3.93427 13.2597 3.92198C13.2272 3.90968 13.1925 3.90409 13.1578 3.90554H10.2691C10.1092 3.90245 9.95023 3.93128 9.80158 3.99034C9.65293 4.04941 9.51756 4.13752 9.40337 4.24952C9.28918 4.36153 9.19847 4.49518 9.13654 4.64265C9.07462 4.79013 9.04272 4.94848 9.04272 5.10843C9.04272 5.26838 9.07462 5.42673 9.13654 5.5742C9.19847 5.72168 9.28918 5.85533 9.40337 5.96734C9.51756 6.07934 9.65293 6.16745 9.80158 6.22652C9.95023 6.28558 10.1092 6.31441 10.2691 6.31132H12.5279C12.7431 6.70621 13.4323 7.66223 15.0555 7.66223C15.2289 7.65454 15.4013 7.63063 15.5703 7.5908V11.4095C15.5702 11.5103 15.5301 11.6069 15.4589 11.6781C15.3876 11.7494 15.291 11.7894 15.1902 11.7896H1.89537C1.79472 11.7894 1.6982 11.7495 1.62691 11.6785C1.55561 11.6074 1.51532 11.511 1.51485 11.4104V4.80091C1.51497 4.70015 1.55505 4.60354 1.6263 4.53229C1.69755 4.46104 1.79416 4.42096 1.89492 4.42084H8.46441C8.49915 4.42229 8.53383 4.4167 8.56635 4.40441C8.59888 4.39211 8.62858 4.37337 8.65367 4.3493C8.67877 4.32523 8.69874 4.29634 8.71238 4.26436C8.72602 4.23237 8.73305 4.19796 8.73305 4.16319C8.73305 4.12842 8.72602 4.09401 8.71238 4.06203C8.69874 4.03004 8.67877 4.00115 8.65367 3.97708C8.62858 3.95301 8.59888 3.93427 8.56635 3.92198C8.53383 3.90968 8.49915 3.90409 8.46441 3.90554H1.89537C1.65816 3.90637 1.4309 4.00097 1.26316 4.16871C1.09543 4.33644 1.00083 4.5637 1 4.80091V11.4104C1.00083 11.6476 1.09543 11.8749 1.26316 12.0426C1.4309 12.2103 1.65816 12.3049 1.89537 12.3058H15.1902C15.4275 12.3049 15.6547 12.2103 15.8225 12.0426C15.9902 11.8749 16.0848 11.6476 16.0856 11.4104V9.13041C17.0093 8.83614 17.5264 8.1699 17.7151 7.87833H19.7421C19.8104 7.87833 19.876 7.85122 19.9243 7.80296C19.9727 7.75469 19.9999 7.68922 20 7.6209V2.7788C20 2.71041 19.9728 2.64482 19.9245 2.59646C19.8761 2.5481 19.8105 2.52093 19.7421 2.52093Z" fill="white" fill-opacity="1" stroke="white" stroke-opacity="1" stroke-width="0.5"/>
<path d="M2.74721 9.46335V6.74759C3.01825 6.6955 3.26745 6.56333 3.46262 6.36817C3.65779 6.173 3.78995 5.9238 3.84205 5.65275H8.24163C8.3081 5.64997 8.37092 5.62161 8.41697 5.5736C8.46303 5.52558 8.48874 5.46163 8.48874 5.3951C8.48874 5.32857 8.46303 5.26462 8.41697 5.2166C8.37092 5.16859 8.3081 5.14023 8.24163 5.13745H3.60888C3.54049 5.13745 3.4749 5.16462 3.42654 5.21298C3.37818 5.26134 3.35101 5.32693 3.35101 5.39532C3.35118 5.50858 3.32905 5.62076 3.28585 5.72545C3.24266 5.83015 3.17927 5.92531 3.09929 6.00549C3.01931 6.08568 2.92432 6.14932 2.81974 6.19279C2.71516 6.23625 2.60303 6.25868 2.48978 6.2588C2.42209 6.25927 2.35729 6.28634 2.30938 6.33416C2.26147 6.38199 2.23429 6.44673 2.2337 6.51443V9.69697C2.2337 9.73081 2.24038 9.76432 2.25334 9.79558C2.26631 9.82684 2.28531 9.85524 2.30926 9.87915C2.33321 9.90306 2.36164 9.92201 2.39293 9.93493C2.42421 9.94784 2.45773 9.95445 2.49158 9.95439C2.71996 9.95475 2.93887 10.0457 3.10032 10.2072C3.26177 10.3687 3.35257 10.5877 3.3528 10.8161C3.3528 10.8499 3.35948 10.8834 3.37244 10.9147C3.38541 10.9459 3.40441 10.9743 3.42836 10.9983C3.45231 11.0222 3.48074 11.0411 3.51203 11.054C3.54331 11.0669 3.57683 11.0736 3.61068 11.0735H13.4768C13.5107 11.0736 13.5442 11.0669 13.5755 11.054C13.6068 11.0411 13.6352 11.0222 13.6591 10.9983C13.6831 10.9743 13.7021 10.9459 13.7151 10.9147C13.728 10.8834 13.7347 10.8499 13.7347 10.8161C13.7349 10.5877 13.8257 10.3687 13.9872 10.2072C14.1486 10.0457 14.3675 9.95475 14.5959 9.95439C14.6298 9.95445 14.6633 9.94784 14.6946 9.93493C14.7259 9.92201 14.7543 9.90306 14.7782 9.87915C14.8022 9.85524 14.8212 9.82684 14.8342 9.79558C14.8471 9.76432 14.8538 9.73081 14.8538 9.69697V8.53249C14.8553 8.49775 14.8497 8.46308 14.8374 8.43055C14.8251 8.39803 14.8063 8.36832 14.7823 8.34323C14.7582 8.31814 14.7293 8.29817 14.6973 8.28453C14.6653 8.27089 14.6309 8.26386 14.5961 8.26386C14.5614 8.26386 14.527 8.27089 14.495 8.28453C14.463 8.29817 14.4341 8.31814 14.41 8.34323C14.386 8.36832 14.3672 8.39803 14.3549 8.43055C14.3426 8.46308 14.337 8.49775 14.3385 8.53249V9.46335C14.0675 9.51556 13.8184 9.64776 13.6232 9.84291C13.4281 10.0381 13.2959 10.2872 13.2437 10.5582H3.84205C3.78984 10.2872 3.65764 10.0381 3.46249 9.84291C3.26734 9.64776 3.0182 9.51556 2.74721 9.46335Z" fill="white" fill-opacity="0.6" stroke="white" stroke-opacity="0.6" stroke-width="0.5"/>
<path d="M8.20429 7.25794H8.82427C8.89074 7.25516 8.95357 7.2268 8.99962 7.17879C9.04567 7.13077 9.07138 7.06682 9.07138 7.00029C9.07138 6.93376 9.04567 6.8698 8.99962 6.82179C8.95357 6.77377 8.89074 6.74542 8.82427 6.74264H8.62165V6.57686C8.62311 6.54212 8.61752 6.50745 8.60522 6.47492C8.59293 6.4424 8.57418 6.4127 8.55011 6.3876C8.52605 6.36251 8.49715 6.34254 8.46517 6.3289C8.43319 6.31526 8.39878 6.30823 8.36401 6.30823C8.32923 6.30823 8.29482 6.31526 8.26284 6.3289C8.23086 6.34254 8.20196 6.36251 8.1779 6.3876C8.15383 6.4127 8.13508 6.4424 8.12279 6.47492C8.11049 6.50745 8.10491 6.54212 8.10636 6.57686V6.74893C7.89456 6.76492 7.69755 6.8636 7.55791 7.02365C7.41827 7.1837 7.3472 7.39226 7.36007 7.60427C7.37293 7.81628 7.46869 8.01472 7.62666 8.15671C7.78463 8.2987 7.99211 8.37284 8.20429 8.36311H8.52327C8.60167 8.36311 8.67686 8.39426 8.7323 8.44969C8.78773 8.50513 8.81888 8.58032 8.81888 8.65872C8.81888 8.73712 8.78773 8.81231 8.7323 8.86775C8.67686 8.92319 8.60167 8.95433 8.52327 8.95433H7.90419C7.86945 8.95288 7.83478 8.95847 7.80225 8.97077C7.76973 8.98306 7.74002 9.00181 7.71493 9.02587C7.68984 9.04994 7.66987 9.07884 7.65623 9.11082C7.64259 9.1428 7.63555 9.17721 7.63555 9.21198C7.63555 9.24675 7.64259 9.28116 7.65623 9.31315C7.66987 9.34513 7.68984 9.37402 7.71493 9.39809C7.74002 9.42216 7.76973 9.44091 7.80225 9.4532C7.83478 9.46549 7.86945 9.47108 7.90419 9.46963H8.10636V9.63541C8.10913 9.70188 8.13749 9.76471 8.18551 9.81076C8.23352 9.85681 8.29748 9.88252 8.36401 9.88252C8.43053 9.88252 8.49449 9.85681 8.5425 9.81076C8.59052 9.76471 8.61888 9.70188 8.62165 9.63541V9.46199C8.83363 9.44618 9.03086 9.34754 9.17067 9.18741C9.31047 9.02728 9.3816 8.81855 9.36867 8.60637C9.35573 8.3942 9.25978 8.19565 9.10156 8.05368C8.94335 7.91172 8.7356 7.83776 8.52327 7.84781H8.20429C8.16459 7.84936 8.12499 7.84288 8.08785 7.82876C8.05072 7.81463 8.01682 7.79316 7.98818 7.76562C7.95954 7.73808 7.93676 7.70504 7.9212 7.66848C7.90564 7.63193 7.89762 7.5926 7.89762 7.55287C7.89762 7.51314 7.90564 7.47382 7.9212 7.43727C7.93676 7.40071 7.95954 7.36767 7.98818 7.34013C8.01682 7.31259 8.05072 7.29112 8.08785 7.27699C8.12499 7.26287 8.16459 7.25639 8.20429 7.25794Z" fill="white" fill-opacity="0.6" stroke="white" stroke-opacity="0.6" stroke-width="0.5"/>
<path d="M5.5236 7.92368C5.47598 7.97145 5.4489 8.03593 5.44812 8.10338C5.44809 8.12045 5.4499 8.13747 5.45351 8.15415C5.45667 8.17052 5.46164 8.18649 5.46834 8.20177C5.4745 8.21762 5.48249 8.2327 5.49215 8.24669C5.50124 8.26065 5.51178 8.2736 5.5236 8.28533C5.53557 8.29733 5.54866 8.30816 5.56268 8.31768C5.57687 8.32689 5.59192 8.33471 5.60761 8.34104C5.6233 8.34754 5.63954 8.35265 5.65613 8.35631C5.67272 8.35938 5.68957 8.36089 5.70644 8.36081C5.77466 8.36057 5.84004 8.33345 5.88839 8.28533C5.90036 8.27349 5.91119 8.26055 5.92074 8.24669C5.92973 8.2323 5.93768 8.21729 5.94455 8.20177C5.95049 8.18626 5.95529 8.17035 5.95893 8.15415C5.96239 8.13745 5.96405 8.12043 5.96387 8.10338C5.96348 8.05259 5.94808 8.00304 5.9196 7.96099C5.89112 7.91893 5.85084 7.88624 5.80382 7.86702C5.7568 7.84781 5.70514 7.84294 5.65536 7.85302C5.60558 7.8631 5.55989 7.88769 5.52405 7.92368H5.5236Z" fill="white" fill-opacity="0.6" stroke="white" stroke-opacity="0.6" stroke-width="0.5"/>
<path d="M11.1654 8.24894C11.175 8.26272 11.1858 8.27565 11.1977 8.28758C11.2245 8.31461 11.257 8.33534 11.2928 8.34826C11.3286 8.36118 11.3669 8.36596 11.4048 8.36226C11.4427 8.35856 11.4793 8.34647 11.5119 8.32687C11.5446 8.30727 11.5724 8.28065 11.5935 8.24894C11.6032 8.23494 11.6112 8.21986 11.6173 8.20401C11.624 8.18874 11.629 8.17277 11.6321 8.15639C11.6357 8.14001 11.6375 8.12329 11.6375 8.10653C11.639 8.07179 11.6334 8.03711 11.6211 8.00459C11.6088 7.97206 11.5901 7.94236 11.566 7.91727C11.5419 7.89217 11.513 7.8722 11.481 7.85856C11.4491 7.84492 11.4147 7.83789 11.3799 7.83789C11.3451 7.83789 11.3107 7.84492 11.2787 7.85856C11.2467 7.8722 11.2178 7.89217 11.1938 7.91727C11.1697 7.94236 11.151 7.97206 11.1387 8.00459C11.1264 8.03711 11.1208 8.07179 11.1222 8.10653C11.1223 8.12327 11.124 8.13996 11.1272 8.15639C11.1308 8.17266 11.1357 8.18859 11.142 8.20401C11.1485 8.2196 11.1564 8.23463 11.1654 8.24894Z" fill="white" fill-opacity="0.6" stroke="white" stroke-opacity="0.6" stroke-width="0.5"/>
<path d="M17.6661 14.3742C17.4256 14.1852 17.1229 14.0933 16.818 14.1168C16.513 14.1402 16.2279 14.2773 16.0191 14.5009L14.3897 16.2624C14.3651 16.2869 14.3457 16.3162 14.3327 16.3484C14.3197 16.3806 14.3134 16.4151 14.314 16.4498C14.3147 16.4845 14.3223 16.5188 14.3365 16.5505C14.3508 16.5821 14.3712 16.6106 14.3967 16.6342C14.4222 16.6578 14.4522 16.676 14.4849 16.6877C14.5176 16.6994 14.5523 16.7044 14.587 16.7024C14.6217 16.7003 14.6556 16.6913 14.6867 16.6758C14.7178 16.6604 14.7454 16.6388 14.768 16.6124L16.3974 14.8508C16.5176 14.722 16.6818 14.643 16.8574 14.6296C17.0331 14.6161 17.2074 14.6691 17.3458 14.778C17.4184 14.8357 17.4788 14.9072 17.5235 14.9884C17.5683 15.0696 17.5964 15.1589 17.6063 15.2511C17.6162 15.3432 17.6077 15.4365 17.5812 15.5253C17.5548 15.6142 17.511 15.6969 17.4523 15.7687L14.6157 19.2378C14.4097 19.4905 14.1162 19.6564 13.7935 19.7028L8.3027 20.4975C8.02378 20.5387 7.75807 20.6435 7.52615 20.8038C7.29423 20.9642 7.10231 21.1757 6.96526 21.4221L6.81521 21.6917H1.7642L4.38068 17.8249C4.75509 17.2674 5.27488 16.823 5.88376 16.5397C6.49265 16.2565 7.16742 16.1452 7.83502 16.2179C8.27777 16.2639 8.71382 16.3602 9.13473 16.505C9.42067 16.6072 9.72193 16.6601 10.0256 16.6613H12.6515C12.8528 16.6616 13.0458 16.7416 13.1881 16.884C13.3305 17.0263 13.4105 17.2193 13.4108 17.4206C13.4105 17.6378 13.3241 17.8461 13.1705 17.9998C13.0169 18.1534 12.8086 18.2398 12.5913 18.24H10.1855C9.79175 18.24 9.41034 18.3776 9.10732 18.6291L8.54215 19.0981C8.4916 19.1424 8.46033 19.2047 8.455 19.2717C8.44968 19.3387 8.47072 19.4051 8.51365 19.4568C8.55658 19.5085 8.618 19.5414 8.68483 19.5485C8.75166 19.5556 8.81863 19.5363 8.87146 19.4948L9.43618 19.0258C9.64612 18.8518 9.91017 18.7565 10.1828 18.7562H12.5904C12.9443 18.7557 13.2835 18.615 13.5337 18.3648C13.7839 18.1145 13.9247 17.7753 13.9252 17.4215C13.9247 17.0836 13.7902 16.7597 13.5513 16.5208C13.3124 16.2818 12.9885 16.1474 12.6506 16.1469H10.0256C9.78052 16.1456 9.53746 16.1026 9.30679 16.0198C8.84875 15.8614 8.3741 15.7559 7.89208 15.7053C7.13117 15.622 6.36198 15.7485 5.6678 16.071C4.97362 16.3936 4.38092 16.8999 3.95389 17.5351L1.06516 21.8031C1.0384 21.8419 1.02277 21.8872 1.01998 21.9343C1.0172 21.9813 1.02735 22.0282 1.04935 22.0699C1.07134 22.1116 1.10434 22.1464 1.14474 22.1707C1.18515 22.1949 1.23143 22.2076 1.27856 22.2074H6.96706C7.01313 22.2071 7.05829 22.1944 7.0978 22.1707C7.13731 22.147 7.16973 22.1132 7.19169 22.0726L7.41631 21.6683C7.51486 21.4914 7.65278 21.3394 7.81941 21.2243C7.98604 21.1092 8.17691 21.0339 8.37728 21.0043L13.8695 20.2127C14.3197 20.148 14.7293 19.9164 15.0169 19.564L17.8535 16.0948C17.9557 15.9703 18.032 15.8266 18.0781 15.6722C18.1241 15.5179 18.139 15.3559 18.1218 15.1957C18.1045 15.0355 18.0556 14.8804 17.9777 14.7393C17.8999 14.5983 17.7947 14.4741 17.6684 14.3742H17.6661Z" fill="white" fill-opacity="0.6" stroke="white" stroke-opacity="0.6" stroke-width="0.5"/>
</svg>
